<?xml version="1.0" encoding="utf-8"?>
<!-- Generator: Adobe Illustrator 25.2.3, SVG Export Plug-In . SVG Version: 6.00 Build 0)  -->
<svg version="1.1"
	 id="Layer_1" inkscape:version="1.0.2-2 (e86c870879, 2021-01-15)" xmlns:cc="http://creativecommons.org/ns#" xmlns:dc="http://purl.org/dc/elements/1.1/" xmlns:inkscape="http://www.inkscape.org/namespaces/inkscape" xmlns:rdf="http://www.w3.org/1999/02/22-rdf-syntax-ns#" xmlns:sodipodi="http://sodipodi.sourceforge.net/DTD/sodipodi-0.dtd" xmlns:svg="http://www.w3.org/2000/svg"
	 xmlns="http://www.w3.org/2000/svg" xmlns:xlink="http://www.w3.org/1999/xlink" x="0px" y="0px" viewBox="0 0 595.3 841.9"
	 style="enable-background:new 0 0 595.3 841.9;" xml:space="preserve">
<sodipodi:namedview  bordercolor="#666666" borderopacity="1" gridtolerance="10" guidetolerance="10" id="namedview35" inkscape:current-layer="Layer_1" inkscape:cx="532.70148" inkscape:cy="551.27703" inkscape:pageopacity="0" inkscape:pageshadow="2" inkscape:window-height="1017" inkscape:window-maximized="1" inkscape:window-width="1920" inkscape:window-x="-8" inkscape:window-y="-8" inkscape:zoom="0.72902799" objecttolerance="10" pagecolor="#ffffff" showgrid="false">
	</sodipodi:namedview>
<path id="eighth-note" d="M213.4,313.3c-1.2,0.2-2.3,0.3-3.5,0.5c0,21.5,0,43,0,64.5c-3.5-1.7-7.7-1.4-11.3-0.3c-2.2,0.7-4.3,1.9-5.8,3.7
	c-2.8,3.1-5.1,7.1-5.1,11.4c0,4,3,7.7,6.9,8.7c4.5,1.2,9.4-0.4,13.1-3.1c3.3-2.5,6.1-5.9,7.1-10c0.9-3.3,0.5-6.8,0.6-10.2
	c0-12.8,0-25.7,0-38.5c5.1,1.1,9.9,4,13.1,8.2c1.7,2.3,2.8,5.1,2.6,8c0,4.4-0.8,8.9-3.1,12.6c-2.9,5-7.6,8.6-11.8,12.5
	c2.2-0.2,4.5-0.3,6.8-0.6c2.8-0.8,5.1-2.8,7.1-4.8c5.6-5.9,9-14,8.2-22.2c-0.4-5.5-3-10.7-6.3-15.1c-2.6-3.6-5.7-7-8.5-10.4
	c-0.7-0.9-1.5-1.9-2.1-2.7c-2.7-3.6-5-7.6-6.2-12c0-0.9-0.8-0.6-1.4-0.5C213.7,313.3,213.5,313.3,213.4,313.3L213.4,313.3z"/>
<path id="flat-1" d="M242.6,472.9c0,20.1,0,40.2,0,60.3c4.1-2.7,8.3-5.4,11.9-8.8c3.7-3.4,7.2-7.4,8.6-12.2c1.1-3.6,0.6-8-2.3-10.7
	c-2.9-2.8-7.4-3.2-11-1.8c-0.4,0.1-1.2,0.7-1-0.1c0-9.5,0-19.1,0-28.6c-2.1,0-4.2,0-6.2,0C242.6,471.6,242.6,472.3,242.6,472.9
	L242.6,472.9z M250.6,506.8c1.3,0.1,2.4,1.2,2.5,2.5c0.7,3.9-1.2,7.9-3.7,10.8c-0.5,0.7-0.7,0.8-0.6-0.1c0-4.3,0-8.5,0-12.8
	C249.3,506.8,250,506.8,250.6,506.8L250.6,506.8z"/>
<path id="flat-2" d="M266.5,438.5c0,20.1,0,40.3,0,60.4c5.9-4,11.8-8.1,16.3-13.7c2.7-3.4,5-7.6,4.7-12.1c-0.1-3.2-2-6.4-5-7.8
	c-3.1-1.5-6.8-1.3-9.8,0.1c0-9.6,0-19.3,0-28.9c-2.1,0-4.2,0-6.2,0C266.5,437.2,266.5,437.8,266.5,438.5L266.5,438.5z M274.5,472.1
	c1.4,0,2.5,1.2,2.5,2.5c0.6,4-1.4,8-3.9,11c-0.6,0.9-0.3-0.4-0.3-0.8c0-4.1,0-8.2,0-12.3C273.3,472.2,273.9,472.1,274.5,472.1z"/>
<path id="quarter-note" d="M194.8,445.9c0,21.2,0,42.5,0,63.7c-3.9-2.2-8.8-1.6-12.6,0.4c-4.6,2.4-8.4,6.7-9.3,11.8
	c-0.6,3.3,0.5,7,3.2,9.2c3.2,2.7,7.9,2.8,11.7,1.5c2.9-0.9,5.3-2.8,7.6-4.8c3.2-2.9,5.1-7,5.2-11.3c0.1-9.2,0-18.3,0-27.5
	c0-15,0-30,0-45c-1.9,0-3.8,0-5.7,0C194.8,444.5,194.8,445.2,194.8,445.9L194.8,445.9z"/>
<path id="double-eighth-note" d="M316.9,315.1c0,21.5,0,42.9,0,64.4c-3.7-2.1-8.4-1.5-12.1,0.3c-4.6,2.3-8.4,6.6-9.3,11.8c-0.6,3.2,0.5,6.7,3,9
	c2.9,2.7,7.3,3,11,1.9c3.7-1.1,6.9-3.5,9.4-6.4c2.7-3.1,3.9-7.3,3.8-11.4c0-19.8,0-39.6,0-59.4c22.5,0,45.1,0,67.6,0
	c-0.1,18-0.1,36.1-0.2,54.1c-3.7-2.1-8.3-1.6-12,0.2c-4.6,2.3-8.4,6.5-9.4,11.6c-0.7,3.3,0.4,6.9,2.8,9.1c2.9,2.7,7.2,3,10.9,2
	c3.7-1,6.9-3.5,9.5-6.3c2.8-3.1,4.1-7.3,3.9-11.5c0-23.9,0-47.7,0-71.6c-26.3,0-52.6,0-78.8,0C316.9,313.8,316.9,314.5,316.9,315.1
	L316.9,315.1z"/>
<path id="path14" d="M550.4,375.7c-4.4,0.2-8.6,2.3-11.8,5.2c-3.2,2.7-5.7,6.3-6.5,10.5c-0.7,3.3-0.3,6.6-0.4,10
	c0,23.3,0,46.6,0,69.9c-18.9,3.9-37.7,7.8-56.6,11.6c0.1-19.4,0.1-38.7,0.2-58.1c4.1,2.1,9.2,1.8,13.4,0c3.8-1.7,7.1-4.7,9.1-8.4
	c2-3.6,2.7-8.3,0.7-12c-1.5-2.9-4.4-4.9-7.6-5.4c-5.1-0.8-10.3,1.3-14,4.7c-3.3,2.6-5.9,6.1-6.9,10.2c-0.9,3.5-0.5,7.1-0.6,10.6
	c0,24.7,0,49.4,0,74c22.8-5,45.6-10.1,68.4-15.1c0-27.2,0-54.4,0-81.6c3.8,2.3,8.7,2,12.7,0.2c4-1.8,7.4-4.8,9.6-8.6
	c2-3.6,2.8-8.2,0.9-12c-1.5-3-4.5-5.2-7.8-5.7C552.2,375.8,551.3,375.7,550.4,375.7L550.4,375.7z"/>
<path id="path16" d="M536.9,347.8c-12.4,0.3-24.8,2.9-36.3,7.8c-2.4,1.1-4.7,2.4-7.1,3.5c-12.3,6.1-23.4,15-31.6,26.1
	c-3.3,4.5-6.2,9.3-8.7,14.4c-0.2,1.6-0.4,3.3-0.6,4.9c1.3-1,2.8-2,4.1-3c2.3-3.4,4.7-6.6,7.3-9.7c3-3.5,6.1-6.7,9.5-9.8
	c0.7-0.6,1.5-1.4,2.3-2c3.8-3.2,7.9-6.1,12.1-8.7c0.7-0.4,1.7-1,2.5-1.5c3.8-2.2,7.7-4.2,11.7-6c3.8-2,8-3.4,12.1-4.7
	c2.6-0.8,5.2-1.5,7.7-2.1c11.3-2.7,22.9-3.7,34.5-2.7c0.4,0,1.3,0.1,1.7,0.2c1.2,0.1,2.3,0.4,3.5,0.4c1.5-0.3,3.1-0.7,4.6-1
	c-1.4-1-2.7-2-4.1-2.9C554,348.4,545.4,347.6,536.9,347.8L536.9,347.8z"/>
<path id="path18" d="M356.6,440.2c-4.3,0.1-8.6,1.3-12.4,3.3c-4.4,2.2-8.4,5.4-10.9,9.6c-2.3,3.4-3.5,7.5-3.4,11.7
	c0.1,4.3,1.1,8.8,3.8,12.2c1.8,2.5,4.6,4.3,7.7,4.7c4,0.5,8.4-0.6,11.1-3.7c2.9-3.1,4-7.7,3.4-11.8c-0.3-1.7-1.1-3.3-2-4.8
	c-1.4-1.9-3.4-3.4-5.6-4.1c-2.2-0.7-4.5-0.4-6.6,0.4c-0.6,0.3-1.3,0.6-1.9,0.9c0.4-1.3,1.1-2.4,1.9-3.4c0.2-0.2,0.6-0.8,0.9-1.1
	c1.7-2,4-3.6,6.4-4.7c2.7-1.1,5.7-1.7,8.6-1.3c3.6,0.2,6.9,1.9,9.5,4.4c2.2,1.9,3.6,4.5,4.7,7.2c2.2,5.4,2.1,11.3,1.3,16.9
	c-0.5,3.5-1.5,7-2.6,10.4c-2,5.5-4.8,10.7-8,15.6c-1.3,2-2.8,3.9-4.3,5.7c-0.3,0.4-0.8,1-1.2,1.4c-0.5,0.5-1.2,1.3-1.7,1.9
	c-2.8,2.9-5.6,5.8-8.9,8.2c-5,3.5-10.8,5.6-16.6,7.6c0.3,1.7,0.4,3.6,1.9,4.7c1.9,1.5,4.4,1.2,6.6,0.9c4.7-0.9,9.1-2.9,13.3-5
	c8.9-4.5,17.3-10.3,24.1-17.7c2.1-2.2,3.8-4.8,5.4-7.4c1.8-2.8,3.4-5.7,5-8.6c1.4-2.9,2.9-5.8,3.8-8.9c0.9-2.5,1.3-5.1,1.6-7.8
	c0.7-6.4-0.4-13-2.6-19.1c-1.7-4.6-4.8-8.5-8.6-11.5c-3.8-3-8.3-5.2-13.1-6.1C363.5,440.4,360,440.1,356.6,440.2L356.6,440.2z
	 M403.4,448.9c-3.3-0.1-6.4,2.4-7,5.6c-0.6,2.8,0.4,5.9,2.8,7.6c3.1,2.2,7.8,1.6,10-1.5c2.3-3,1.8-7.8-1.3-10.1
	C406.7,449.4,405,448.9,403.4,448.9L403.4,448.9z M403.4,475.6c-3.3-0.1-6.4,2.4-7,5.6c-0.7,2.8,0.5,6,2.9,7.6
	c3,2.1,7.7,1.5,9.9-1.5c2.3-3,1.9-7.8-1.1-10.1C406.8,476.1,405.1,475.6,403.4,475.6z"/>
<path id="treble-clef" d="M99.3,314.4c-4.5,3.4-7.9,8-10.6,12.9c-2.1,3.7-3.6,7.7-5,11.7c-2.4,7.1-3.4,14.7-3.8,22.2
	c-0.4,7.9,0.5,15.8,2.4,23.5c-9.7,8.4-19,17.4-26.5,27.9c-5.7,8.1-10.3,17.2-11.8,27.1c-0.8,5.1-0.6,10.4,0.9,15.3
	c2.7,9.1,8.8,16.9,16.5,22.3c7,5,15.3,8.3,23.8,9.2c3.5,0.4,7,0.5,10.4,0.1c2.6-0.3,5.1-0.7,7.6-1.4c1.2,6.3,2.4,12.6,3.6,19
	c0.2,1.4,0.3,3.1,0.1,4.6c-0.5,4.1-2.6,7.9-5.6,10.6c-1.6,1.6-3.4,3.1-5.6,4.1c-2.6,1.1-5.4,2.2-8.3,2.4c-2.1,0.1-4.1,0.3-6.2-0.1
	c4.1-1.8,7.9-4.8,9.5-9.1c1.5-4.1,1.2-8.8-0.8-12.7c-1.2-2.9-3.6-5.1-6.2-6.8c-2.1-1.3-4.5-2-7-2.1c-4.4-0.1-8.9,1.8-12,4.9
	c-1.8,2.3-3.2,4.9-3.9,7.8c-0.9,4.2-0.2,8.6,1.4,12.5c1.9,5.2,6.4,9,11.4,11.2c1.9,0.9,3.9,1.2,6,1.5c4.1,0.6,8.2,0.3,12.3-0.5
	c3.9-0.9,7.6-2.4,11-4.7c3.6-2.6,6.8-5.9,8.8-9.9c2.1-4,2.8-8.6,2.4-13.1c-0.2-1.6-0.3-3.2-0.7-4.7c-0.4-2.5-0.7-5.1-1.2-7.6
	c-0.3-2.4-0.9-4.7-1.2-7.1c-0.1-0.9-0.3-1.8-0.5-2.6c5.9-3.1,11.2-7.5,15-12.9c3.5-5,5.4-11.2,4.9-17.4c-0.3-5.6-2.5-11.1-6.1-15.5
	c-2-2.5-4.3-4.6-7-6.3c-4.8-3.1-10.6-4.8-16.3-4.9c-1.2,0-2.4,0-3.6,0.1c-1.5-7.1-3.1-14.2-4.6-21.3c8.7-7.6,16.4-16.6,21-27.3
	c3.8-8.7,5.1-18.4,3.7-27.7c-1.6-11.4-6.8-21.9-13.2-31.3c-1.2-1.7-2.4-3.4-3.6-5C100.4,313.6,99.9,314,99.3,314.4L99.3,314.4z
	 M102.5,333.7c3.3,3.2,5.3,7.6,5.3,12.2c0.2,6.4-2.5,12.5-5.9,17.8c-1.9,2.9-4.1,5.7-6.4,8.3c-0.5,0.6-1.2,1.4-1.8,2
	c-1.8,1.9-3.7,3.7-5.6,5.5c-0.7-3.9-0.5-7.9-0.3-11.9c0.5-7.7,1.8-15.5,4.7-22.7c1.4-3.5,3.3-6.9,5.9-9.6
	C99.5,334.2,101,333.6,102.5,333.7z M90.2,426.3c-4.2,1.2-8.2,3.4-11.4,6.3c-2.5,2.1-4.8,4.5-6.3,7.5c-1.3,2.6-2.6,5.4-2.9,8.3
	c-0.7,5.1,0.3,10.6,3.6,14.7c2.5,3.2,5.9,5.7,9.7,7c2.7,1,5.5,1.4,8.3,1.5c1.3,0.1,2.6,0.2,3.8,0.3c-2.4-1.9-4.8-3.8-7.3-5.5
	c-3.2-2.3-6-5.7-6.5-9.7c-0.5-3.3,0.3-6.9,2.6-9.4c2.5-2.8,6-4.6,9.7-5.3c2.7,11.9,5.5,23.9,8.2,35.8c-3.9,1.9-8.2,2.3-12.4,2.3
	c-5,0.1-9.9-1.2-14.4-3.2c-4.2-2-8.1-4.9-11-8.6c-0.7-0.9-1.3-1.7-1.9-2.6c-2.6-3.7-4-8.2-4.3-12.7c-0.4-7.7,2.4-15.2,6.5-21.6
	c5.6-8.7,13.2-15.9,21.2-22.3c0.5-0.4,1.1-1.1,1.1,0C87.7,414.8,89,420.5,90.2,426.3L90.2,426.3z M101.3,441c4.1,0,8.1,1.8,10.7,5
	c1.7,1.7,2.9,3.9,3.7,6.2c1.3,4.1,1.2,8.6-0.4,12.6c-1.4,3.5-3.8,6.5-6.7,9c-2.6-10.9-5.2-21.8-7.7-32.7
	C100.9,441,101.1,441,101.3,441z"/>
</svg>
